
<svg width="26px" height="19px" viewBox="0 0 26 19" version="1.1" xmlns="http://www.w3.org/2000/svg" xmlns:xlink="http://www.w3.org/1999/xlink">
    <!-- Generator: Sketch 51.3 (57544) - http://www.bohemiancoding.com/sketch -->
    <desc>Created with Sketch.</desc>
    <defs></defs>
    <g id="Symbols" stroke="none" stroke-width="1" fill="none" fill-rule="evenodd">
        <g id="680x86-rrss" transform="translate(-576.000000, -34.000000)" fill="#000000" fill-rule="nonzero">
            <g id="Group-16">
                <path d="M600.986587,35.6310149 C600.048071,34.4725484 598.315297,34 595.006084,34 L582.993665,34 C579.608716,34 577.846587,34.5030298 576.911594,35.7363934 C576,36.9389272 576,38.7107661 576,41.1630364 L576,45.8370507 C576,50.587878 577.0816,53 582.993665,53 L595.006168,53 C597.875897,53 599.46609,52.5830148 600.494852,51.5606694 C601.549865,50.5122842 602,48.8005372 602,45.8370507 L602,41.1630364 C602,38.5769093 601.929465,36.7946197 600.986587,35.6310149 Z M591.839617,44.2803416 L586.868404,47.3104089 C586.757267,47.3781577 586.635735,47.4117647 586.514355,47.4117647 C586.376924,47.4117647 586.239799,47.3686194 586.118343,47.2828636 C585.889648,47.1212469 585.75,46.8321555 585.75,46.5203325 L585.75,40.4796312 C585.75,40.168343 585.889266,39.879519 586.117502,39.7178132 C586.345815,39.5561074 586.629773,39.5450536 586.866646,39.6885742 L591.837859,42.6991191 C592.090784,42.8522672 592.249617,43.1567804 592.25,43.4890172 C592.250305,43.8215214 592.09216,44.1264804 591.839617,44.2803416 Z" id="XMLID_823_-Copy-2"></path>
            </g>
        </g>
    </g>
</svg>