
<svg width="27px" height="22px" viewBox="0 0 27 22" version="1.1" xmlns="http://www.w3.org/2000/svg" xmlns:xlink="http://www.w3.org/1999/xlink">
    <!-- Generator: Sketch 51.3 (57544) - http://www.bohemiancoding.com/sketch -->
    <desc>Created with Sketch.</desc>
    <defs></defs>
    <g id="Symbols" stroke="none" stroke-width="1" fill="none" fill-rule="evenodd">
        <g id="680x86-rrss" transform="translate(-510.000000, -32.000000)" fill="#FFFFFF" fill-rule="nonzero">
            <g id="Group-16">
                <path d="M537,34.6044615 C535.995937,35.0461538 534.926063,35.3389231 533.810625,35.4810769 C534.958125,34.794 535.833938,33.7143077 536.245688,32.4129231 C535.175813,33.0526154 533.994563,33.5044615 532.735688,33.7566154 C531.719812,32.6718462 530.271938,32 528.692437,32 C525.627938,32 523.160813,34.4944615 523.160813,37.5524615 C523.160813,37.9924615 523.197937,38.4155385 523.289062,38.8183077 C518.68725,38.5932308 514.615312,36.3813846 511.879875,33.012 C511.402312,33.8429231 511.122187,34.794 511.122187,35.8178462 C511.122187,37.7403077 512.109375,39.4444615 513.580875,40.4310769 C512.691563,40.4141538 511.819125,40.1552308 511.08,39.7473846 C511.08,39.7643077 511.08,39.7863077 511.08,39.8083077 C511.08,42.5058462 512.998687,44.7464615 515.51475,45.2626154 C515.064188,45.3861538 514.573125,45.4453846 514.0635,45.4453846 C513.709125,45.4453846 513.351375,45.4250769 513.015562,45.3506154 C513.73275,47.5489231 515.767875,49.1650769 518.18775,49.2175385 C516.3045,50.6949231 513.913312,51.5850769 511.324687,51.5850769 C510.87075,51.5850769 510.435375,51.5647692 510,51.5089231 C512.451937,53.0946154 515.357813,54 518.4915,54 C528.67725,54 534.246,45.5384615 534.246,38.204 C534.246,37.9586154 534.237562,37.7216923 534.22575,37.4864615 C535.324313,36.7046154 536.247375,35.7281538 537,34.6044615 Z" id="Path-Copy-4"></path>
            </g>
        </g>
    </g>
</svg>