
<svg width="12px" height="23px" viewBox="0 0 12 23" version="1.1" xmlns="http://www.w3.org/2000/svg" xmlns:xlink="http://www.w3.org/1999/xlink">
    <!-- Generator: Sketch 51.3 (57544) - http://www.bohemiancoding.com/sketch -->
    <desc>Created with Sketch.</desc>
    <defs></defs>
    <g id="Symbols" stroke="none" stroke-width="1" fill="none" fill-rule="evenodd">
        <g id="680x86-rrss" transform="translate(-397.000000, -30.000000)" fill="#000000" fill-rule="nonzero">
            <g id="Group-16">
                <path d="M408.548115,30.0047855 L405.669861,30 C402.436241,30 400.346534,32.2216847 400.346534,35.660331 L400.346534,38.2701227 L397.452577,38.2701227 C397.202505,38.2701227 397,38.4802077 397,38.7393444 L397,42.520635 C397,42.7797718 397.202736,42.9896175 397.452577,42.9896175 L400.346534,42.9896175 L400.346534,52.5310176 C400.346534,52.7901543 400.549039,53 400.799111,53 L404.5749,53 C404.824973,53 405.027478,52.789915 405.027478,52.5310176 L405.027478,42.9896175 L408.411187,42.9896175 C408.66126,42.9896175 408.863765,42.7797718 408.863765,42.520635 L408.86515,38.7393444 C408.86515,38.6149205 408.817353,38.4957606 408.73261,38.4077068 C408.647867,38.3196529 408.532414,38.2701227 408.412342,38.2701227 L405.027478,38.2701227 L405.027478,36.0577697 C405.027478,34.9944238 405.272008,34.4546154 406.608728,34.4546154 L408.547653,34.4538976 C408.797495,34.4538976 409,34.2438126 409,33.9849152 L409,30.473768 C409,30.2151098 408.797726,30.0052641 408.548115,30.0047855 Z" id="Path-Copy-3"></path>
            </g>
        </g>
    </g>
</svg>