
<svg width="24px" height="25px" viewBox="0 0 24 25" version="1.1" xmlns="http://www.w3.org/2000/svg" xmlns:xlink="http://www.w3.org/1999/xlink">
    <!-- Generator: Sketch 51.3 (57544) - http://www.bohemiancoding.com/sketch -->
    <desc>Created with Sketch.</desc>
    <defs></defs>
    <g id="Symbols" stroke="none" stroke-width="1" fill="none" fill-rule="evenodd">
        <g id="680x86-rrss" transform="translate(-448.000000, -30.000000)" fill="#000000" fill-rule="nonzero">
            <g id="Group-16">
                <g id="instagram-icon-copy-2" transform="translate(448.000000, 30.000000)">
                    <path d="M17.24328,0 L6.5721287,0 C2.94825913,0 -5.68434189e-14,3.07125 -5.68434189e-14,6.84611413 L-5.68434189e-14,17.9618967 C-5.68434189e-14,21.7369076 2.94825913,24.8080109 6.5721287,24.8080109 L17.24328,24.8080109 C20.8674313,24.8080109 23.8156904,21.7367609 23.8156904,17.9618967 L23.8156904,6.84611413 C23.8158313,3.07125 20.8674313,0 17.24328,0 Z M21.7027878,17.9618967 C21.7027878,20.5232283 19.7022991,22.6069239 17.2434209,22.6069239 L6.5721287,22.6069239 C4.1133913,22.6070707 2.11304348,20.5232283 2.11304348,17.9618967 L2.11304348,6.84611413 C2.11304348,4.28492935 4.1133913,2.20108696 6.5721287,2.20108696 L17.24328,2.20108696 C19.7021583,2.20108696 21.702647,4.28492935 21.702647,6.84611413 L21.702647,17.9618967 L21.7027878,17.9618967 Z" id="Shape"></path>
                    <path d="M11.9078452,6.01190217 C8.52401739,6.01190217 5.77114435,8.87947826 5.77114435,12.4042989 C5.77114435,15.9289728 8.52401739,18.7964022 11.9078452,18.7964022 C15.291673,18.7964022 18.0445461,15.9289728 18.0445461,12.4042989 C18.0445461,8.87947826 15.291673,6.01190217 11.9078452,6.01190217 Z M11.9078452,16.5951685 C9.68929043,16.5951685 7.88418783,14.7151467 7.88418783,12.4041522 C7.88418783,10.0930109 9.68914957,8.21284239 11.9078452,8.21284239 C14.1265409,8.21284239 15.9315026,10.0930109 15.9315026,12.4041522 C15.9315026,14.7151467 14.1264,16.5951685 11.9078452,16.5951685 Z" id="Shape"></path>
                    <path d="M18.3019148,4.14552717 C17.8948017,4.14552717 17.494873,4.31721196 17.2073583,4.61802717 C16.9184348,4.917375 16.7523496,5.33411413 16.7523496,5.75965761 C16.7523496,6.18388043 16.9185757,6.60047283 17.2073583,6.90128804 C17.4947322,7.20063587 17.8948017,7.37378804 18.3019148,7.37378804 C18.7104365,7.37378804 19.1090974,7.20063587 19.39788,6.90128804 C19.6866626,6.60047283 19.85148,6.1837337 19.85148,5.75965761 C19.85148,5.33411413 19.6866626,4.917375 19.39788,4.61802717 C19.1105061,4.31721196 18.7104365,4.14552717 18.3019148,4.14552717 Z" id="Path"></path>
                </g>
            </g>
        </g>
    </g>
</svg>